<svg width="41" height="72" viewBox="0 0 41 72" fill="none" xmlns="http://www.w3.org/2000/svg">
<path d="M12.192 48.528C10.704 48.528 9.296 48.352 7.968 48C6.656 47.648 5.504 47.192 4.512 46.632C3.52 46.072 2.736 45.488 2.16 44.88L4.608 39.84C4.976 40.32 5.536 40.832 6.288 41.376C7.04 41.92 7.896 42.384 8.856 42.768C9.832 43.152 10.8 43.344 11.76 43.344C13.024 43.344 14.08 43 14.928 42.312C15.792 41.608 16.224 40.624 16.224 39.36C16.224 38.544 16.024 37.84 15.624 37.248C15.24 36.64 14.72 36.104 14.064 35.64C13.424 35.16 12.432 34.512 11.088 33.696C9.248 32.576 7.808 31.624 6.768 30.84C5.728 30.04 4.824 29 4.056 27.72C3.304 26.424 2.928 24.864 2.928 23.04C2.928 21.264 3.304 19.696 4.056 18.336C4.824 16.96 5.952 15.888 7.44 15.12C8.928 14.352 10.72 13.968 12.816 13.968C16.224 13.968 19.072 15.008 21.36 17.088L18.672 21.984C18.4 21.6 17.992 21.184 17.448 20.736C16.904 20.272 16.248 19.88 15.48 19.56C14.712 19.224 13.904 19.056 13.056 19.056C11.824 19.056 10.864 19.416 10.176 20.136C9.504 20.84 9.168 21.728 9.168 22.8C9.168 23.616 9.368 24.344 9.768 24.984C10.184 25.608 10.72 26.168 11.376 26.664C12.048 27.16 12.944 27.744 14.064 28.416C16.096 29.616 17.648 30.624 18.72 31.44C19.792 32.256 20.688 33.296 21.408 34.56C22.144 35.808 22.512 37.344 22.512 39.168C22.512 41.104 22.096 42.776 21.264 44.184C20.432 45.592 19.24 46.672 17.688 47.424C16.136 48.16 14.304 48.528 12.192 48.528Z" fill="black"/>
<path d="M30.632 54.152H18.68L16.904 59H10.184L24.344 24.968H24.824L39.032 59H32.504L30.632 54.152ZM28.856 49.496L25.352 40.376L24.536 37.688L23.768 40.376L20.408 49.496H28.856Z" fill="black"/>
</svg>
